<?xml version="1.0" encoding="utf-8"?>
<!-- Generator: Adobe Illustrator 27.7.0, SVG Export Plug-In . SVG Version: 6.00 Build 0)  -->
<svg version="1.1" id="Camada_1" xmlns="http://www.w3.org/2000/svg" xmlns:xlink="http://www.w3.org/1999/xlink" x="0px" y="0px"
	 viewBox="0 0 250 100" style="enable-background:new 0 0 250 100;" xml:space="preserve">
<style type="text/css">
	.st0{fill-rule:evenodd;clip-rule:evenodd;fill:#8652ff;}
</style>
<g>
	<path class="st0" d="M32.47,21.01c-0.8,0.37-1.41,0.86-1.41,1.11c0,0.43,10.56,7,12.34,7.68c1.35,0.49,1.9-0.49,1.41-2.46
		c-0.25-1.11-1.6-2.27-4.48-3.93C35.48,20.52,34.25,20.15,32.47,21.01z"/>
	<path class="st0" d="M20.31,22.48c-2.09,2.21-2.03,4.79,0.18,6.76c1.41,1.35,2.03,1.54,4.36,1.23c2.39-0.31,3.19-0.06,8.78,3.13
		c6.08,3.44,7.25,4.67,7.25,7.68c0,0.74-0.43,1.78-0.98,2.39c-0.92,0.98-0.86,1.23,0.31,2.46l1.29,1.41l1.54-1.47
		c1.35-1.29,1.54-1.97,1.54-5.65c0-5.1,0.06-5.1-9.09-10.26c-4.91-2.82-6.88-4.3-6.88-5.1c0-0.61-0.68-1.84-1.54-2.64
		C25.04,20.33,22.27,20.4,20.31,22.48z M26.14,23.34c0.68,0.68,1.23,1.78,1.23,2.46c0,1.23-2.03,3.68-3.01,3.68
		c-1.54,0-3.68-1.29-4.05-2.39C19.14,23.34,23.44,20.64,26.14,23.34z"/>
	<path class="st0" d="M50.28,23.96c-3.25,1.35-4.05,5.9-1.41,8.29c0.98,0.92,1.11,1.72,0.8,8.47c-0.31,6.51-0.49,7.68-1.66,8.9
		c-0.98,1.17-1.78,1.41-3.56,1.23c-2.09-0.18-2.33-0.06-2.33,1.17c0,0.8,0,1.6-0.06,1.84c0,0.25,0.86,0.68,1.9,0.98
		c1.54,0.37,2.52,0.12,5.28-1.41c1.84-1.04,3.62-2.46,3.93-3.07c0.37-0.61,0.61-4.73,0.61-9.09c0-7.61,0.06-7.92,1.54-9.33
		c1.9-1.78,2.09-4.97,0.31-6.76c-0.68-0.68-1.47-1.23-1.78-1.23c-0.31,0-0.92-0.12-1.41-0.25C52,23.53,51.01,23.65,50.28,23.96z
		 M54.57,26.29c2.21,1.97,0.49,5.65-2.7,5.65c-3.5,0-4.3-5.47-1.04-6.69C52.3,24.69,52.86,24.82,54.57,26.29z"/>
	<path class="st0" d="M174.26,28.63c-2.03,1.41-1.66,4.48,0.68,5.77c1.47,0.8,1.84,0.8,3.38,0c2.15-1.23,2.52-3.75,0.8-5.47
		C177.58,27.4,176.1,27.27,174.26,28.63z"/>
	<path class="st0" d="M14.17,32.92c-2.03,1.17-4.18,2.7-4.73,3.44c-1.11,1.29-1.54,4.42-0.55,4.05c2.82-1.04,12.96-7.06,12.96-7.68
		c0-0.8-1.9-2.03-3.19-2.03C18.22,30.71,16.19,31.7,14.17,32.92z"/>
	<path class="st0" d="M57.95,40.05c-0.12,4.18-0.12,7.68-0.06,7.8c0.12,0.18,0.98,0,1.9-0.31c1.66-0.55,1.66-0.68,1.84-6.69
		c0.18-5.65,0.06-6.2-1.17-7.25c-0.74-0.55-1.54-1.04-1.78-1.04C58.38,32.56,58.07,35.93,57.95,40.05z"/>
	<path class="st0" d="M18.22,40.17c-6.08,3.44-7.25,3.87-9.52,3.62c-3.75-0.43-5.71,1.66-5.28,5.65c0.49,4.73,7.49,4.97,8.97,0.31
		c0.61-1.84,1.6-2.64,6.76-5.65c6.51-3.81,7-3.93,10.01-2.89c1.41,0.49,2.09,1.17,2.33,2.46c0.37,1.84,1.04,2.27,1.72,1.17
		c0.18-0.37,0.86-0.61,1.54-0.61c0.98,0,1.04-0.25,0.49-2.09c-0.49-1.47-1.47-2.58-3.81-3.99c-1.78-1.04-3.87-1.9-4.67-1.9
		C25.9,36.3,22.09,38.02,18.22,40.17z M10.3,45.88c1.35,1.23,1.47,4.05,0.18,5.1c-0.49,0.43-1.6,0.74-2.46,0.74
		c-2.09,0-3.38-1.17-3.38-3.07C4.65,45.39,7.96,43.73,10.3,45.88z"/>
	<path class="st0" d="M149.39,38.94c-3.19,1.17-4.54,2.52-4.97,4.91c-1.04,5.47,1.23,8.29,8.04,9.83c2.64,0.61,5.22,1.35,5.71,1.6
		c1.23,0.61,1.54,2.52,0.49,3.13c-1.29,0.86-6.82,0.61-8.72-0.37c-0.92-0.49-2.09-0.92-2.46-0.92c-0.8,0-3.44,3.25-3.44,4.24
		c0,0.31,1.29,1.23,2.95,1.97c3.75,1.9,11.42,2.39,14.43,0.98c3.5-1.66,4.97-3.75,4.97-7.12c0-5.22-2.58-7.43-10.07-8.6
		c-4.85-0.8-6.39-2.21-4.18-3.93c1.6-1.35,4.85-1.04,8.04,0.61c1.84,0.92,1.9,0.92,3.32-0.8c0.8-0.98,1.41-2.21,1.41-2.76
		C164.93,39.06,154.18,37.16,149.39,38.94z"/>
	<path class="st0" d="M173.22,38.82c-0.18,0.49-0.25,6.45-0.18,13.33l0.18,12.53h3.25h3.25V51.53V38.39l-3.07-0.18
		C174.45,38.08,173.4,38.27,173.22,38.82z"/>
	<path class="st0" d="M194.71,39.25c-6.76,3.07-10.07,11.24-7.12,17.56c3.38,7.37,12.04,10.44,19.41,7
		c8.35-3.93,10.32-14.98,3.87-21.43C206.69,38.21,199.87,36.85,194.71,39.25z M203.62,44.53c3.99,2.09,5.47,6.69,3.38,10.75
		c-1.35,2.58-3.25,3.68-6.45,3.68c-3.19,0-5.1-1.11-6.45-3.68c-1.9-3.68-0.61-8.29,2.95-10.44
		C199.38,43.36,201.22,43.3,203.62,44.53z"/>
	<path class="st0" d="M221.67,38.88c-0.12,0.43-0.18,6.39-0.12,13.26l0.18,12.53l3.07,0.06l3.07,0.06l0.31-9.15
		c0.31-9.03,0.31-9.09,2.03-10.56c2.21-1.9,5.34-1.97,6.94-0.18c0.98,1.11,1.23,2.58,1.47,10.56l0.31,9.33l3.07-0.12
		c1.72-0.06,3.32-0.12,3.62-0.12c0.25-0.06,0.37-4.42,0.25-9.76c-0.31-11.12-1.17-13.88-5.04-15.72c-2.7-1.29-7.25-1.29-10.01,0.06
		c-2.03,0.92-2.21,0.92-2.76,0C227.38,37.84,222.16,37.65,221.67,38.88z"/>
	<path class="st0" d="M82.7,39.43c0.06,1.23,12.47,24.63,13.14,24.87c0.37,0.12,1.54-1.54,2.64-3.62c1.11-2.15,3.81-7.31,6.02-11.55
		c5.96-11.36,5.83-10.44,1.41-10.44h-3.68l-2.76,5.83c-1.54,3.19-3.13,5.83-3.5,5.83c-0.43,0-1.97-2.64-3.44-5.83l-2.76-5.83H86.2
		C83.74,38.7,82.64,38.94,82.7,39.43z"/>
	<path class="st0" d="M114.2,44.65c1.47,3.32,3.93,8.84,5.53,12.34c1.54,3.44,2.82,6.63,2.82,7.12c0,0.43-0.8,2.64-1.84,4.85
		c-2.52,5.59-2.46,5.96,1.11,5.96c1.6,0,3.19-0.25,3.62-0.49c0.37-0.25,2.21-4.18,4.11-8.72c1.84-4.54,5.04-12.4,7.06-17.44
		c2.09-4.97,3.75-9.21,3.75-9.33c0-0.12-1.78-0.25-3.87-0.25h-3.93l-2.58,7.18c-1.41,3.99-2.7,7.61-2.82,7.98
		c-0.61,1.9-1.66,0.31-4.48-7.06l-3.07-7.8l-4.05-0.18l-3.99-0.18L114.2,44.65z"/>
	<path class="st0" d="M22.4,48.4c-5.1,3.01-4.85,2.39-4.85,11.91c0,8.11-0.06,8.66-1.35,9.7c-0.92,0.74-1.35,1.72-1.35,3.25
		c0,3.68,2.95,5.83,6.39,4.67c3.38-1.23,4.24-5.4,1.6-7.86c-1.41-1.35-1.47-1.6-1.17-8.84c0.31-6.88,0.43-7.61,1.84-9.15
		c1.23-1.29,1.9-1.54,3.56-1.29c1.78,0.31,2.03,0.18,2.33-1.41c0.18-0.98,0.31-1.84,0.25-1.9c-0.06,0-1.11-0.25-2.27-0.43
		C25.71,46.8,24.61,47.11,22.4,48.4z M21.97,71.06c1.11,0.98,1.41,3.01,0.61,4.24c-1.54,2.33-5.28,2.03-6.2-0.49
		C15.09,71.24,19.14,68.48,21.97,71.06z"/>
	<path class="st0" d="M33.02,48.03c-1.35,1.47-1.72,3.81-0.86,5.22c0.25,0.37,1.29,1.04,2.27,1.41c1.47,0.55,2.03,0.49,3.32-0.49
		c1.84-1.35,2.39-4.18,1.17-5.77c-0.43-0.61-1.66-1.23-2.64-1.47C34.86,46.68,34.13,46.93,33.02,48.03z"/>
	<path class="st0" d="M61.33,50.06c-1.23,0.49-2.15,1.41-2.39,2.39c-0.25,1.17-1.97,2.52-6.88,5.34c-5.96,3.5-6.63,3.75-8.66,3.25
		c-1.6-0.43-2.46-1.11-3.13-2.52c-0.74-1.54-1.23-1.9-2.15-1.66c-1.97,0.61-2.33,1.23-1.72,3.13c0.61,1.9,6.26,5.71,8.47,5.71
		c0.68,0,4.36-1.78,8.23-3.99c4.85-2.76,7.25-3.81,7.68-3.38c0.8,0.8,3.81,0.8,5.28,0c1.47-0.8,2.52-3.99,1.9-5.71
		C66.86,49.81,64.22,48.77,61.33,50.06z M66.49,52.82c0.92,1.84-0.12,4.18-2.15,4.73c-2.7,0.68-4.85-1.6-4.18-4.36
		C60.9,50.18,65.01,49.93,66.49,52.82z"/>
	<path class="st0" d="M10.91,54.42c-1.23,0.86-1.35,1.41-1.35,6.69c0,5.16,0.12,5.9,1.35,7.06c0.74,0.68,1.54,1.23,1.72,1.23
		c0.55,0,1.41-14.62,0.92-15.35C13.06,53.19,12.51,53.31,10.91,54.42z"/>
	<path class="st0" d="M28.29,55.95c-1.23,1.54-1.54,2.52-1.54,5.47c0,1.97,0.18,4.05,0.37,4.54c0.25,0.55,3.68,2.95,7.68,5.4
		c4.85,2.89,7.31,4.67,7.31,5.4c0,0.55,0.55,1.78,1.29,2.7c1.78,2.27,5.47,2.27,7.25,0c0.74-0.92,1.29-2.27,1.29-3.01
		c0-3.01-4.18-6.02-6.51-4.73c-1.29,0.74-13.14-5.96-14.19-7.98c-1.11-2.03-0.98-4.18,0.31-5.65c1.11-1.23,1.11-1.35-0.31-2.64
		l-1.35-1.35L28.29,55.95z M49.48,74.01c0.43,0.49,0.8,1.6,0.8,2.46c0,2.15-1.23,3.38-3.32,3.38c-1.72,0-3.62-1.84-3.62-3.62
		C43.34,73.64,47.82,72.04,49.48,74.01z"/>
	<path class="st0" d="M55.8,64.98c-3.5,1.9-6.33,3.81-6.33,4.18s0.74,0.98,1.6,1.41c1.41,0.61,2.03,0.49,4.79-0.92
		c5.28-2.7,7.12-4.36,7.12-6.45c0-0.98-0.18-1.78-0.43-1.78C62.25,61.42,59.24,63.01,55.8,64.98z"/>
	<path class="st0" d="M26.45,72.53c-0.98,1.54,0.43,3.62,3.87,5.71c5.04,3.07,6.57,3.56,8.41,2.7c0.86-0.37,1.54-0.86,1.54-1.04
		c0-0.49-12.16-8.04-12.9-8.04C27.06,71.86,26.63,72.16,26.45,72.53z"/>
</g>
</svg>
